<?xml version="1.0" encoding="utf-8"?>
<!-- Generator: Adobe Illustrator 17.1.0, SVG Export Plug-In . SVG Version: 6.00 Build 0)  -->
<!DOCTYPE svg PUBLIC "-//W3C//DTD SVG 1.1//EN" "http://www.w3.org/Graphics/SVG/1.1/DTD/svg11.dtd">
<svg version="1.1" id="Calque_1" xmlns="http://www.w3.org/2000/svg" xmlns:xlink="http://www.w3.org/1999/xlink" x="0px" y="0px"
	 viewBox="0 0 157.4 224.8" enable-background="new 0 0 157.4 224.8" xml:space="preserve">
<g>
	<path fill="#C1264E" d="M78.6,224.8c-4-5.5-7.9-10.6-11.7-15.9c-20-28-39-56.5-54-87.6C7.5,110.1,2.4,98.5,0.7,85.8
		c-2.2-16,1.2-31.2,9-45.1C29.8,5.1,70.9-9.1,108.8,5.9c30.2,12,50.6,43.8,48.5,76.1c-0.8,12-5.3,23.1-10.3,33.9
		c-12.4,27.3-28.4,52.5-45.3,77.1C94.9,202.9,79.5,223.7,78.6,224.8z"/>
	<g>
		<path fill="#FFCFA4" d="M47.4,43.3c2.9,0.5,5.8,0.8,8.5,1.4c7.4,1.6,14.4,4.3,21,8c0.5,0.3,0.8,0.5,0.8,1.2c0,18.5,0,37,0,55.5
			c0,0.1,0,0.3,0,0.6c-9.5-5.2-19.5-8.5-30.3-9.5C47.4,81.5,47.4,62.5,47.4,43.3z"/>
		<path fill="#FFCFA4" d="M110,100.6c-10.8,0.9-20.8,4.3-30.3,9.5c0-0.5-0.1-0.8-0.1-1.2c0-18.2,0-36.4,0-54.6
			c0-0.8,0.2-1.2,0.9-1.6c1.5-0.7,3-1.5,4.7-2.4c0,5.7,0,11.2,0,16.9c1.5-1.7,2.8-3.1,4.1-4.6c1.3,1.5,2.5,2.9,3.9,4.6
			c0-0.7,0-1.1,0-1.5c0-5.9,0-11.8,0-17.7c0-0.7,0.2-1.1,0.9-1.3c4.6-1.5,9.4-2.6,14.2-3.1c0.5-0.1,1.1-0.1,1.7-0.1
			C110,62.5,110,81.4,110,100.6z"/>
		<path fill="#FFCFA4" d="M37.5,56.1c1.1-0.1,2-0.2,3.1-0.3c0,17.5,0,34.9,0,52.4c2.4,0,4.6,0,6.8,0c10.3,0.2,20.2,2.6,29.6,6.6
			c1.2,0.5,2.2,0.5,3.5,0c11.3-4.9,23.1-7.2,35.5-6.6c0.2,0,0.5,0,0.8,0c0-17.4,0-34.8,0-52.4c1.1,0.1,2.1,0.2,3.2,0.3
			c0,0.5,0,0.9,0,1.2c0,18.4,0,36.8,0,55.2c0,1.5-0.4,1.9-1.9,1.7c-5.4-0.7-10.9-1-16.4-0.8c-6.9,0.2-13.6,1.3-20.2,3.2
			c-1.7,0.5-3.7,0.5-5.4,0c-9.3-2.7-18.8-3.7-28.4-3.1c-2.8,0.2-5.6,0.5-8.3,0.7c-1.2,0.1-1.8-0.3-1.8-1.5c0-18.6,0-37.2,0-55.7
			C37.5,56.8,37.5,56.5,37.5,56.1z"/>
		<path fill="#FFCFA4" d="M111.8,102.2c0-17.5,0-35,0-52.4c1.1,0,2.1,0,3.1,0c0,18.9,0,37.7,0,56.6c-1.6,0-3.2,0-4.8,0
			c-10.1,0.1-19.8,2.3-29.2,6.2c-1.6,0.7-3,0.7-4.6,0c-9.2-3.8-18.7-6-28.7-6.2c-1.7,0-3.4,0-5.2,0c0-18.9,0-37.7,0-56.6
			c1,0,1.9,0,3,0c0,17.4,0,34.9,0,52.3c3,0.4,5.8,0.7,8.6,1.2c7.9,1.4,15.3,4.2,22.3,8.1c1.7,0.9,3,0.9,4.6,0
			C90.6,106.1,100.7,102.9,111.8,102.2z"/>
	</g>
</g>
</svg>
